<?xml version="1.0" standalone="no"?>
<!DOCTYPE svg PUBLIC "-//W3C//DTD SVG 20010904//EN"
 "http://www.w3.org/TR/2001/REC-SVG-20010904/DTD/svg10.dtd">
<svg version="1.0" xmlns="http://www.w3.org/2000/svg"
 width="131.000000pt" height="130.000000pt" viewBox="0 0 131.000000 130.000000"
 preserveAspectRatio="xMidYMid meet">

<g transform="translate(0.000000,130.000000) scale(0.100000,-0.100000)"
fill="#000000" stroke="none">
<path d="M589 1000 c-118 -20 -209 -112 -209 -212 1 -59 26 -156 50 -191 30
-43 91 -84 147 -98 39 -10 42 -13 36 -40 -8 -40 12 -37 27 4 l12 32 15 -42 c8
-24 19 -43 25 -43 10 0 7 30 -6 61 -5 12 6 19 48 32 29 10 60 24 67 33 10 12
4 11 -27 -4 -65 -33 -92 -36 -99 -11 -8 25 8 39 46 39 15 0 46 7 69 15 51 18
58 19 42 3 -20 -20 -13 -32 8 -13 27 24 59 115 67 186 8 79 -14 136 -73 187
-60 53 -155 77 -245 62z m121 -49 c76 -52 112 -106 118 -175 4 -46 0 -62 -22
-99 -26 -45 -129 -124 -154 -119 -7 2 -15 -11 -19 -28 -6 -30 -8 -31 -42 -25
-63 12 -129 55 -153 99 -9 17 -8 17 20 -2 40 -29 73 -41 129 -46 47 -4 47 -4
25 13 -58 40 -105 88 -124 125 -28 55 -21 131 17 186 30 44 111 109 135 109 8
0 40 -17 70 -38z"/>
<path d="M580 790 c0 -5 5 -10 10 -10 6 0 10 5 10 10 0 6 -4 10 -10 10 -5 0
-10 -4 -10 -10z"/>
<path d="M716 791 c-4 -5 -2 -12 3 -15 5 -4 12 -2 15 3 4 5 2 12 -3 15 -5 4
-12 2 -15 -3z"/>
<path d="M889 474 c-48 -36 -81 -52 -141 -69 -47 -14 -48 -15 -13 -10 47 5
154 56 180 85 25 27 16 25 -26 -6z"/>
<path d="M400 469 c60 -49 185 -91 264 -88 17 1 -5 7 -49 14 -89 14 -143 34
-191 70 -39 30 -60 33 -24 4z"/>
<path d="M409 381 c-9 -24 -15 -28 -46 -27 -29 1 -39 -4 -49 -23 -25 -49 26
-98 75 -71 12 6 21 17 21 25 0 8 5 15 10 15 14 0 13 37 -1 42 -8 3 -6 14 5 36
10 19 12 32 6 32 -6 0 -16 -13 -21 -29z"/>
<path d="M882 400 c17 -52 19 -60 9 -60 -20 0 -12 -36 14 -64 41 -44 95 -25
95 33 0 38 -22 55 -60 47 -20 -4 -30 -1 -30 7 0 6 -8 21 -17 32 -9 11 -14 14
-11 5z"/>
<path d="M656 355 c4 -8 8 -15 10 -15 2 0 4 7 4 15 0 8 -4 15 -10 15 -5 0 -7
-7 -4 -15z"/>
<path d="M420 240 c25 -8 87 -13 79 -6 -2 2 -26 6 -54 9 -34 4 -42 3 -25 -3z"/>
<path d="M840 238 c-19 -5 -102 -10 -185 -11 -128 -1 -140 -3 -85 -10 77 -9
213 -1 290 17 30 8 46 14 35 14 -11 0 -36 -4 -55 -10z"/>
<path d="M396 165 c-5 -13 29 -15 266 -15 239 0 269 2 258 15 -19 22 -515 22
-524 0z"/>
</g>
</svg>
